<svg id="Layer_1" data-name="Layer 1" xmlns="http://www.w3.org/2000/svg" viewBox="0 0 820.85 238"><defs><style>.cls-1{font-size:109.2px;font-family:NewJune-Regular, NewJuneRegular;letter-spacing:0.06em;}.cls-1,.cls-4{fill:#fff;}.cls-2{letter-spacing:0.03em;}.cls-3{letter-spacing:0.06em;}</style></defs><title>logo</title><text class="cls-1" transform="translate(203.02 228.81)">F<tspan class="cls-2" x="70.1" y="0">L</tspan><tspan class="cls-3" x="136.71" y="0">OURISH!</tspan></text><path class="cls-4" d="M46.07,147.83s-4.43,12.25-4.46,12.35-6.41,7.75-6.5,8c0,0-4.87,2.87-5,3s-3.89.74-4,.8L24,171.59a1.27,1.27,0,0,0-.46,2.5l1.54.27-.53,1.46a1.27,1.27,0,1,0,2.39.87l.67-1.84,2.2-.4s0,3.05.08,3.18l-.75,2a1.27,1.27,0,0,0,.76,1.63,1.09,1.09,0,0,0,.43.08,1.26,1.26,0,0,0,1.19-.83l.54-1.47,1.36.78a1.22,1.22,0,0,0,.63.17,1.27,1.27,0,0,0,.64-2.37l-1.71-1v-2.82l3.5-2s1.77,4.75,1.84,4.87,0,3.92.09,4.05l-.74,2a1.26,1.26,0,0,0,.76,1.62,1.14,1.14,0,0,0,.44.08,1.26,1.26,0,0,0,1.19-.84l.53-1.46,1.35.77a1.23,1.23,0,0,0,.64.17,1.26,1.26,0,0,0,1.09-.62,1.29,1.29,0,0,0-.46-1.75l-1.71-1v-2.21s3.11.49,3.16.48l1.86,1.08a1.39,1.39,0,0,0,.64.17,1.26,1.26,0,0,0,1.1-.64,1.27,1.27,0,0,0-.46-1.74l-1.34-.76,1-1.21a1.27,1.27,0,1,0-1.94-1.64l-1.28,1.52-2.79-.49-1.53-4.21,4.46-5.33s5.39,6.31,5.65,6.46c0,0,2,5.32,2,5.44s.05,3.92.09,4.05l-.75,2a1.26,1.26,0,0,0,.75,1.62,1.14,1.14,0,0,0,.44.08,1.28,1.28,0,0,0,1.2-.83l.53-1.47,1.35.77a1.23,1.23,0,0,0,.64.17,1.27,1.27,0,0,0,.63-2.37l-1.7-1v-2.21s3.11.49,3.16.48l1.87,1.08a1.32,1.32,0,0,0,.63.17,1.27,1.27,0,0,0,.64-2.38l-1.35-.77,1-1.2a1.27,1.27,0,0,0-2-1.64L58,174.82l-2.78-.49-1.4-3.81s5-.92,5.08-1l4.05.63,1.86,1.08a1.23,1.23,0,0,0,.64.17,1.28,1.28,0,0,0,1.1-.63,1.27,1.27,0,0,0-.46-1.74l-1.35-.78,1-1.2a1.27,1.27,0,0,0-1.94-1.63L62.53,167l-2.18-.38s1-2.88,1-3l1.4-1.66a1.27,1.27,0,0,0-1.95-1.64l-1,1.19-1-1.19a1.27,1.27,0,0,0-1.94,1.64l1.27,1.51-1,2.65-4.42.78-5.22-6.23,4.41-12.12,19-3.35,0,21.05s-5.15,14.18-5.18,14.29-6.39,7.74-6.49,8c0,0-4.86,2.87-5,3s-3.89.72-4,.78l-2.14-.37a1.27,1.27,0,0,0-.44,2.5l1.54.27-.54,1.47a1.26,1.26,0,0,0,.75,1.63,1.36,1.36,0,0,0,.44.08,1.26,1.26,0,0,0,1.19-.84l.69-1.86,2.18-.38s.05,3.05.09,3.18l-.74,2a1.28,1.28,0,0,0,.75,1.63,1.39,1.39,0,0,0,.44.07,1.26,1.26,0,0,0,1.19-.84l.54-1.47,1.34.77a1.2,1.2,0,0,0,.64.18,1.27,1.27,0,0,0,.64-2.36l-1.71-1v-2.83l3.51-2s1.77,4.74,1.84,4.86.05,3.91.09,4l-.74,2a1.26,1.26,0,0,0,.75,1.63,1.17,1.17,0,0,0,.44.08,1.29,1.29,0,0,0,1.2-.83l.53-1.46,1.34.77a1.24,1.24,0,0,0,.64.18,1.27,1.27,0,0,0,.64-2.37l-1.71-1v-2.22s3.11.49,3.16.48l1.86,1.08a1.27,1.27,0,1,0,1.28-2.2l-1.36-.79,1-1.19a1.27,1.27,0,1,0-1.94-1.63l-1.27,1.51-2.78-.5L64.1,190.4l4.46-5.31s5.39,6.31,5.66,6.45c0,0,2,5.32,2,5.44s0,3.91.07,4.05l-.74,2a1.29,1.29,0,0,0,.75,1.64,1.35,1.35,0,0,0,.44.07,1.25,1.25,0,0,0,1.19-.83l.54-1.46,1.35.77a1.24,1.24,0,0,0,.64.18,1.3,1.3,0,0,0,1.1-.63,1.27,1.27,0,0,0-.47-1.74l-1.7-1v-2.22s3.1.49,3.16.48l1.86,1.08a1.25,1.25,0,0,0,.64.17,1.27,1.27,0,0,0,.64-2.37l-1.36-.79,1-1.19a1.27,1.27,0,1,0-2-1.63l-1.27,1.51-2.77-.5L78,190.81s4.95-.92,5.07-1,4,.63,4.06.62L89,191.55a1.22,1.22,0,0,0,.63.17,1.29,1.29,0,0,0,1.11-.64,1.27,1.27,0,0,0-.47-1.73l-1.35-.78,1-1.19a1.27,1.27,0,1,0-2-1.64l-1.27,1.51-2.18-.38,1-2.61a2,2,0,0,0,.06-.41l1.39-1.65A1.27,1.27,0,1,0,85,180.56l-1,1.19-1-1.19A1.27,1.27,0,0,0,81,182.2l1.27,1.5-1,2.65-4.41.78-5.24-6.22,3.95-10.83L87,176.6l6.78,7.82s2,5.31,2,5.43l.09,4.06-.75,2a1.27,1.27,0,0,0,.76,1.63,1.61,1.61,0,0,0,.43.07,1.27,1.27,0,0,0,1.2-.83l.53-1.46,1.35.78a1.33,1.33,0,0,0,.64.17,1.27,1.27,0,0,0,.63-2.37L99,193v-2.22s3.09.48,3.15.47l1.88,1.08a1.22,1.22,0,0,0,.63.17,1.27,1.27,0,0,0,1.1-.63,1.25,1.25,0,0,0-.46-1.73L104,189.3l1-1.18a1.27,1.27,0,0,0-1.94-1.64l-1.27,1.5L99,187.49l-1.39-3.8,5.08-1,4,.63,1.86,1.09a1.33,1.33,0,0,0,.64.17,1.25,1.25,0,0,0,1.1-.63,1.27,1.27,0,0,0-.46-1.74l-1.35-.78,1-1.19a1.27,1.27,0,1,0-1.94-1.64l-1.27,1.51-2.18-.39s1-2.87,1-3l1.39-1.66a1.27,1.27,0,0,0-2-1.64l-1,1.2-1-1.2a1.28,1.28,0,0,0-2,1.64l1.28,1.51-1,2.65-4.42.79L92,174.7l7.33-4.45,5.69-1.09,4.06.64,1.85,1.08a1.23,1.23,0,0,0,.64.17,1.27,1.27,0,0,0,.64-2.36l-1.35-.79,1-1.2a1.26,1.26,0,1,0-1.94-1.62l-1.27,1.5-2.18-.38s1-2.89,1-3l1.39-1.68a1.27,1.27,0,0,0-2-1.62l-1,1.2-1-1.19a1.27,1.27,0,0,0-1.94,1.64l1.27,1.51-1,2.64-4,.71-.08-5.17s1.3-3.74,1.31-3.88l1.39-1.65a1.26,1.26,0,0,0-.15-1.79,1.28,1.28,0,0,0-1.8.15l-1,1.19-1-1.19a1.27,1.27,0,0,0-1.94,1.64l1.27,1.5-.76,2.08-2.81-1.52-1.39-1.66a1.27,1.27,0,0,0-2,1.64l1,1.19-1.35.79a1.27,1.27,0,0,0,.63,2.37,1.32,1.32,0,0,0,.64-.16l1.71-1,2.45,1.41v4.49l-7,4.07-11.17-6.45V143.55l28.43-16.41,42.58,24.58v79.13h11.27v-80.1s18.88-51.92,18.92-52.19L201,71.71c0-.06.09-.14.14-.21l20.27-11.73s14.85-2.64,14.95-2.68,10,1.63,10.18,1.61c0,0,5,2.84,5.11,2.88s2.53,2.94,2.65,3l.74,2.07a1.28,1.28,0,0,0,1.2.83,1.75,1.75,0,0,0,.44-.07,1.27,1.27,0,0,0,.75-1.63l-.53-1.48,1.54-.27a1.27,1.27,0,0,0-.44-2.5l-1.95.34-1.42-1.7s2.61-1.55,2.71-1.65l2.14-.37a1.29,1.29,0,0,0,1-1.48,1.27,1.27,0,0,0-1.47-1l-1.54.26V54.35a1.28,1.28,0,0,0-2.55,0v2l-2.43,1.4-3.51-2s3.2-3.9,3.26-4,3.41-2,3.5-2.12l2.14-.37a1.27,1.27,0,0,0,1-1.48,1.26,1.26,0,0,0-1.47-1L256,47V45.42a1.27,1.27,0,1,0-2.54,0v2l-1.92,1.11s-1.09-2.85-1.17-3V43.37a1.27,1.27,0,1,0-2.54,0v1.56l-1.55-.27a1.27,1.27,0,1,0-.43,2.5l1.95.34,1,2.66-2.89,3.44L239,52.39l2.77-8.12s3.59-4.36,3.65-4.47l3.5-2.12,2.14-.38a1.27,1.27,0,0,0-.44-2.5l-1.54.27V33.51a1.28,1.28,0,0,0-2.55,0v2l-1.91,1.11s-1.09-2.85-1.17-3V31.46a1.27,1.27,0,0,0-2.54,0V33l-1.53-.27a1.27,1.27,0,0,0-1.48,1,1.28,1.28,0,0,0,1,1.48l2,.35,1,2.65-2.61,3.1-3.37-3.91-1.48-3.81V31.46a1.27,1.27,0,0,0-2.54,0V33l-1.53-.27a1.26,1.26,0,0,0-1.47,1,1.27,1.27,0,0,0,1,1.48l2,.35.75,2.07-3.12.65-2.14-.38a1.27,1.27,0,1,0-.44,2.5l1.54.27-.53,1.46a1.27,1.27,0,0,0,.76,1.63,1.14,1.14,0,0,0,.44.08,1.27,1.27,0,0,0,1.19-.83l.67-1.87,2.78-.48,2.88,3.44-2.78,7.63-11.33,2s0-13,0-13.13,3.37-9.47,3.36-9.78l3.66-4.47L233,24.28l2.14-.37a1.27,1.27,0,0,0-.44-2.5l-1.54.27V20.11a1.27,1.27,0,1,0-2.54,0v2l-1.91,1.11s-1.1-2.84-1.18-3V18.06a1.27,1.27,0,1,0-2.54,0v1.56l-1.53-.27a1.28,1.28,0,0,0-.45,2.51l1.94.34,1,2.66L223.27,28s-3.28-3.82-3.38-3.9-1.4-3.7-1.48-3.81V18.06a1.27,1.27,0,0,0-2.54,0v1.56l-1.54-.27a1.28,1.28,0,0,0-.45,2.51l2,.34.76,2.08-3.13.64-2.13-.38a1.27,1.27,0,0,0-.44,2.51l1.53.27-.53,1.46a1.28,1.28,0,0,0,.76,1.63,1.14,1.14,0,0,0,.44.08,1.28,1.28,0,0,0,1.2-.84L215,27.8l2.79-.5,2.89,3.45-2.37,6.51-7.52-4.13L207,28.75s-1.4-3.7-1.48-3.82V22.78a1.27,1.27,0,1,0-2.54,0v1.54l-1.53-.26a1.27,1.27,0,1,0-.44,2.5l1.93.34.76,2.09-3.1.63-2.14-.38a1.27,1.27,0,1,0-.45,2.5l1.54.28L199,33.49a1.26,1.26,0,0,0,.76,1.63,1.63,1.63,0,0,0,.43.08,1.25,1.25,0,0,0,1.19-.85L202,32.5l2.78-.49,2.6,3.11s-4.33,2.55-4.43,2.65l-4,.79-2.13-.38a1.29,1.29,0,0,0-1.47,1,1.27,1.27,0,0,0,1,1.47l1.54.27-.53,1.46a1.27,1.27,0,0,0,.76,1.63,1.32,1.32,0,0,0,.44.08,1.27,1.27,0,0,0,1.19-.84l.67-1.86,2.19-.38.08,3.17L202,46.27a1.26,1.26,0,0,0,.76,1.63,1.06,1.06,0,0,0,.43.08,1.28,1.28,0,0,0,1.2-.83l.54-1.48,1.35.78a1.22,1.22,0,0,0,.63.17,1.28,1.28,0,0,0,.64-2.38l-1.7-1V40.44l3.88-2.25,7,4.07V55.17L200,64.82S192.84,45.13,192.8,45s0-15.08,0-15.18,3.38-9.48,3.37-9.79c0,0,3.58-4.35,3.64-4.47s3.41-2,3.51-2.12l2.13-.36a1.27,1.27,0,0,0-.43-2.51l-1.54.27V9.32a1.28,1.28,0,0,0-2.55,0v2L199,12.39s-1.08-2.84-1.16-3V7.27a1.27,1.27,0,1,0-2.54,0V8.82l-1.53-.26a1.27,1.27,0,0,0-.45,2.5l1.95.34,1,2.66-2.6,3.1s-3.29-3.83-3.39-3.91-1.39-3.7-1.47-3.82V7.27a1.27,1.27,0,0,0-2.54,0V8.82l-1.54-.27a1.27,1.27,0,1,0-.44,2.5l1.94.35.76,2.08s-3,.58-3.12.64l-2.14-.38a1.28,1.28,0,0,0-.45,2.51l1.54.27L182.23,18a1.28,1.28,0,0,0,.75,1.64,1.41,1.41,0,0,0,.44.08,1.3,1.3,0,0,0,1.2-.84l.67-1.85,2.79-.5L191,20l-2.38,6.51s-7.21-4.08-7.51-4.13c0,0-3.67-4.3-3.77-4.38s-1.4-3.7-1.49-3.81V12a1.27,1.27,0,0,0-2.54,0v1.57l-1.53-.27a1.27,1.27,0,0,0-.45,2.5l1.95.34.76,2.09s-3,.57-3.13.63l-2.13-.38A1.28,1.28,0,0,0,168.3,21l1.54.26-.52,1.47a1.27,1.27,0,0,0,2.39.87l.66-1.85,2.79-.49,2.6,3.1s-4.34,2.57-4.44,2.66-3.88.73-4,.79l-2.13-.39a1.28,1.28,0,0,0-.46,2.51l1.54.27-.54,1.47a1.28,1.28,0,0,0,.76,1.63,1.36,1.36,0,0,0,.44.08,1.26,1.26,0,0,0,1.19-.84l.67-1.85,2.19-.38s.05,3,.09,3.18l-.75,2a1.27,1.27,0,0,0,.76,1.63,1.11,1.11,0,0,0,.44.08,1.27,1.27,0,0,0,1.19-.84l.54-1.46,1.35.77a1.22,1.22,0,0,0,.63.17,1.3,1.3,0,0,0,1.11-.63,1.27,1.27,0,0,0-.47-1.74l-1.71-1V29.65l3.89-2.25,7,4.06V43l-12.6-2.21c-.11,0-.22,0-.33,0s-8.73-4.95-9-5c0,0-3.68-4.3-3.79-4.37s-1.39-3.71-1.47-3.82V25.36a1.27,1.27,0,0,0-2.54,0v1.56l-1.54-.26a1.26,1.26,0,1,0-.44,2.49l1.94.35.76,2.08s-3,.58-3.11.63l-2.13-.37a1.27,1.27,0,1,0-.45,2.5l1.53.28-.53,1.46a1.27,1.27,0,1,0,2.39.87l.67-1.85,2.78-.5,2.61,3.11s-4.34,2.56-4.43,2.65-3.9.73-4,.79l-2.13-.39a1.28,1.28,0,0,0-.46,2.52l1.54.27L151.77,45a1.27,1.27,0,0,0,.76,1.63,1.32,1.32,0,0,0,.44.08,1.29,1.29,0,0,0,1.19-.84l.67-1.85,2.19-.38s0,3,.08,3.18l-.74,2a1.27,1.27,0,0,0,.76,1.63,1.11,1.11,0,0,0,.44.08,1.28,1.28,0,0,0,1.19-.83l.53-1.48,1.36.79a1.28,1.28,0,0,0,.63.16,1.25,1.25,0,0,0,1.1-.63,1.27,1.27,0,0,0-.46-1.74l-1.71-1V43l3.89-2.26,6,3.47s-5.28,6.41-5.38,6.7c0,0-4.87,2.86-5,2.94s-3.9.74-4,.8l-2.13-.38a1.28,1.28,0,0,0-.45,2.51l1.54.27-.54,1.47a1.26,1.26,0,0,0,.76,1.62,1.11,1.11,0,0,0,.44.08,1.27,1.27,0,0,0,1.19-.83l.67-1.86,2.19-.38s.05,3.05.08,3.19l-.74,2a1.26,1.26,0,0,0,.76,1.62,1.11,1.11,0,0,0,.44.08,1.27,1.27,0,0,0,1.19-.83l.54-1.48,1.35.78a1.32,1.32,0,0,0,.63.17,1.29,1.29,0,0,0,1.11-.64,1.27,1.27,0,0,0-.48-1.73l-1.7-1V56.58l3.51-2s1.76,4.75,1.84,4.86.05,3.93.08,4.06l-.75,2a1.29,1.29,0,0,0,.76,1.64,1.68,1.68,0,0,0,.44.07,1.26,1.26,0,0,0,1.19-.83l.54-1.47,1.34.79a1.33,1.33,0,0,0,.64.17,1.28,1.28,0,0,0,1.1-.63,1.26,1.26,0,0,0-.46-1.74l-1.7-1V60.29l3.15.48,1.86,1.07a1.28,1.28,0,0,0,1.74-.46,1.28,1.28,0,0,0-.47-1.74l-1.34-.78,1-1.19a1.27,1.27,0,0,0-.16-1.79,1.25,1.25,0,0,0-1.79.16l-1.27,1.51-2.77-.5-1.54-4.22,5.23-6.23,12.69,2.25,7.15,19.63-20.17,24S153.08,67.1,153,67s-8-21.93-8-22,0-15.08,0-15.18,3.38-9.48,3.37-9.78c0,0,3.58-4.35,3.65-4.47s3.4-2,3.5-2.12l2.13-.36a1.29,1.29,0,0,0,1-1.47,1.27,1.27,0,0,0-1.48-1l-1.53.27V9.32a1.27,1.27,0,0,0-2.54,0v2l-1.93,1.12s-1.08-2.85-1.16-3V7.27a1.28,1.28,0,0,0-2.55,0V8.82l-1.52-.26a1.27,1.27,0,0,0-.44,2.5l1.93.34,1,2.66-2.6,3.1s-3.29-3.83-3.39-3.9-1.4-3.71-1.48-3.83V7.27a1.27,1.27,0,0,0-2.54,0V8.82l-1.53-.27a1.29,1.29,0,0,0-1.48,1,1.27,1.27,0,0,0,1,1.47l1.94.35.76,2.08s-3,.58-3.12.64l-2.14-.38a1.27,1.27,0,0,0-1.47,1,1.29,1.29,0,0,0,1,1.48l1.54.27L134.41,18a1.28,1.28,0,0,0,.76,1.64,1.35,1.35,0,0,0,.43.08,1.29,1.29,0,0,0,1.2-.84l.67-1.85,2.78-.5L143.13,20l-2.37,6.5s-7.22-4.07-7.52-4.12c0,0-3.66-4.3-3.77-4.37s-1.4-3.71-1.48-3.82V12a1.27,1.27,0,1,0-2.54,0v1.57l-1.53-.27a1.27,1.27,0,0,0-.45,2.5l2,.34.75,2.09s-3,.57-3.12.63l-2.13-.38a1.27,1.27,0,1,0-.44,2.51l1.54.26-.54,1.47a1.28,1.28,0,0,0,.76,1.63,1.31,1.31,0,0,0,.44.07,1.26,1.26,0,0,0,1.19-.83l.67-1.85,2.78-.49,2.6,3.1s-4.33,2.56-4.43,2.65-3.88.74-4,.8l-2.13-.39a1.28,1.28,0,0,0-.45,2.51l1.54.27-.54,1.47a1.28,1.28,0,0,0,.76,1.63,1.41,1.41,0,0,0,.44.08,1.28,1.28,0,0,0,1.2-.84l.67-1.85,2.18-.4s0,3.06.08,3.2l-.74,2a1.27,1.27,0,0,0,.76,1.63,1.31,1.31,0,0,0,.43.08,1.28,1.28,0,0,0,1.2-.84l.53-1.46,1.35.77a1.25,1.25,0,0,0,.63.17,1.3,1.3,0,0,0,1.11-.63,1.26,1.26,0,0,0-.47-1.74l-1.7-1V29.64l3.88-2.24,7,4.06V43l-12.95-2.24s-8.73-4.95-9-5c0,0-3.67-4.3-3.78-4.39s-1.38-3.69-1.47-3.8V25.36a1.27,1.27,0,1,0-2.54,0v1.56L108,26.65a1.29,1.29,0,0,0-1.48,1,1.27,1.27,0,0,0,1,1.47l1.95.35.76,2.07s-3,.59-3.12.65L105,31.84a1.27,1.27,0,0,0-1.47,1,1.26,1.26,0,0,0,1,1.47l1.54.28-.53,1.46a1.29,1.29,0,0,0,.76,1.64,1.35,1.35,0,0,0,.44.07,1.26,1.26,0,0,0,1.19-.84l.67-1.85,2.79-.51L114,37.7s-4.35,2.56-4.45,2.65-3.87.73-4,.8l-2.14-.39a1.27,1.27,0,0,0-1.46,1,1.26,1.26,0,0,0,1,1.47l1.54.28L104,45a1.26,1.26,0,0,0,.75,1.63,1.36,1.36,0,0,0,.44.08,1.27,1.27,0,0,0,1.19-.84L107,44l2.17-.38s0,3,.09,3.18l-.74,2a1.25,1.25,0,0,0,.77,1.62,1,1,0,0,0,.42.08,1.28,1.28,0,0,0,1.2-.83l.53-1.48,1.36.79a1.29,1.29,0,0,0,1.73-.47,1.28,1.28,0,0,0-.47-1.74l-1.71-1V43l3.89-2.25,6,3.47S117,50.66,116.88,51c0,0-4.86,2.86-5,2.94s-3.89.74-4,.8l-2.14-.38a1.26,1.26,0,0,0-1.47,1,1.28,1.28,0,0,0,1,1.48l1.54.27-.54,1.47a1.27,1.27,0,0,0,.76,1.62,1.17,1.17,0,0,0,.44.08,1.28,1.28,0,0,0,1.2-.83l.67-1.86,2.19-.38s0,3,.08,3.18l-.75,2a1.28,1.28,0,0,0,.76,1.63,1.35,1.35,0,0,0,.44.07,1.27,1.27,0,0,0,1.19-.82l.54-1.48,1.35.78a1.31,1.31,0,0,0,.64.18,1.27,1.27,0,0,0,1.09-.65,1.25,1.25,0,0,0-.46-1.73l-1.7-1V56.58l3.5-2s1.77,4.75,1.84,4.86.05,3.93.09,4.06l-.75,2a1.28,1.28,0,0,0,.76,1.63,1.61,1.61,0,0,0,.43.07,1.28,1.28,0,0,0,1.2-.84l.53-1.46,1.36.79a1.27,1.27,0,0,0,.63.17,1.27,1.27,0,0,0,.64-2.37l-1.71-1V60.29l3.16.48,1.86,1.07a1.22,1.22,0,0,0,.63.17,1.27,1.27,0,0,0,1.11-.63,1.28,1.28,0,0,0-.46-1.74l-1.35-.78,1-1.19A1.27,1.27,0,1,0,127.28,56L126,57.55l-2.79-.5-1.53-4.22,5.22-6.23,12.71,2.25L146.23,67s-20.63,3.66-20.73,3.69-14.85-2.61-15-2.61-8.74-5-9.06-5c0,0-3.65-4.28-3.75-4.36s-1.4-3.71-1.48-3.83V52.69a1.27,1.27,0,0,0-2.54,0v1.56L92.17,54a1.28,1.28,0,0,0-.45,2.51l2,.34.76,2.09s-3,.58-3.12.63l-2.14-.38a1.28,1.28,0,0,0-.44,2.52l1.54.26-.53,1.45A1.27,1.27,0,0,0,90.49,65a1.32,1.32,0,0,0,.44.08,1.27,1.27,0,0,0,1.19-.84l.67-1.85,2.79-.49,2.6,3.1s-4.34,2.56-4.43,2.65-3.89.73-4,.79l-2.14-.38a1.27,1.27,0,0,0-.44,2.51l1.54.27-.54,1.47A1.26,1.26,0,0,0,88.92,74a1.09,1.09,0,0,0,.43.08,1.27,1.27,0,0,0,1.19-.83l.68-1.86L93.41,71s0,3,.08,3.17l-.75,2.06a1.27,1.27,0,0,0,.77,1.62,1.25,1.25,0,0,0,.43.07,1.28,1.28,0,0,0,1.2-.83l.53-1.47,1.36.78a1.23,1.23,0,0,0,.64.17,1.25,1.25,0,0,0,1.09-.63,1.27,1.27,0,0,0-.46-1.74l-1.72-1V70.37l3.89-2.25,6,3.48s-5.28,6.4-5.38,6.67c0,0-4.87,2.87-5,3s-3.88.75-4,.8L90,81.66a1.27,1.27,0,1,0-.45,2.5l1.54.27-.53,1.45a1.27,1.27,0,0,0,.76,1.64,1.21,1.21,0,0,0,.43.07,1.26,1.26,0,0,0,1.19-.83l.68-1.85,2.18-.39s0,3.06.08,3.19l-.74,2a1.27,1.27,0,0,0,.76,1.63,1.29,1.29,0,0,0,.43.07,1.27,1.27,0,0,0,1.2-.83l.53-1.47,1.36.78a1.32,1.32,0,0,0,.63.17,1.27,1.27,0,0,0,.64-2.38l-1.71-1V83.91l3.51-2,1.63,4.5a1.42,1.42,0,0,0,.21.36s0,3.93.08,4.07l-.74,2a1.27,1.27,0,0,0,.76,1.63,1.09,1.09,0,0,0,.43.08,1.25,1.25,0,0,0,1.19-.84l.54-1.47,1.36.78a1.21,1.21,0,0,0,.63.18,1.28,1.28,0,0,0,.64-2.38l-1.72-1V87.63s3.11.48,3.17.47l1.87,1.08a1.33,1.33,0,0,0,.64.17A1.27,1.27,0,0,0,113.8,87l-1.36-.77,1-1.2a1.27,1.27,0,1,0-2-1.63l-1.27,1.51-2.78-.49-1.54-4.22L111.14,74l11.33,2-4.38,12c0,.11,0,.21-.08.32s-6.39,7.73-6.48,8c0,0-4.88,2.87-5,3s-3.88.74-4,.8l-2.13-.39a1.28,1.28,0,0,0-.45,2.51l1.54.27-.54,1.48a1.27,1.27,0,0,0,.76,1.62,1.09,1.09,0,0,0,.43.08,1.27,1.27,0,0,0,1.2-.84L104,103l2.17-.39v2.77a1.5,1.5,0,0,0,.09.42l-.74,2a1.26,1.26,0,0,0,.76,1.62,1.31,1.31,0,0,0,.43.08,1.28,1.28,0,0,0,1.2-.84l.53-1.47,1.35.79a1.36,1.36,0,0,0,.64.17,1.27,1.27,0,0,0,.63-2.37l-1.71-1V102l3.52-2s1.76,4.75,1.84,4.87,0,3.91.08,4l-.75,2a1.28,1.28,0,0,0,.76,1.63,1.32,1.32,0,0,0,.44.08,1.27,1.27,0,0,0,1.19-.84l.54-1.47,1.34.78a1.38,1.38,0,0,0,.64.18,1.26,1.26,0,0,0,1.1-.65,1.27,1.27,0,0,0-.46-1.73l-1.71-1v-2.22s3.11.49,3.16.48l1.87,1.07a1.23,1.23,0,0,0,.64.17,1.27,1.27,0,0,0,.63-2.37l-1.35-.78,1-1.19a1.27,1.27,0,1,0-1.94-1.63l-1.28,1.51-2.78-.49-1.53-4.22,4.45-5.31s5.39,6.29,5.65,6.44c0,0,2,5.33,2,5.44s.05,3.93.09,4.06l-.74,2a1.29,1.29,0,0,0,.77,1.63,1.25,1.25,0,0,0,1.62-.76l.53-1.47,1.35.78a1.34,1.34,0,0,0,.64.18,1.23,1.23,0,0,0,1.09-.65,1.25,1.25,0,0,0-.46-1.73l-1.71-1v-2.22s3.11.49,3.16.48l1.88,1.07a1.19,1.19,0,0,0,.63.17,1.24,1.24,0,0,0,1.1-.64A1.27,1.27,0,0,0,138,105l-1.35-.78,1-1.19a1.27,1.27,0,0,0-1.94-1.64l-1.28,1.52-2.79-.49-1.38-3.81s5-.93,5.08-1,4,.65,4.05.64l1.87,1.07a1.22,1.22,0,0,0,.63.17A1.28,1.28,0,0,0,143,98.9a1.26,1.26,0,0,0-.47-1.73l-1.35-.79,1-1.19a1.27,1.27,0,1,0-2-1.63l-1.26,1.51-2.19-.39.95-2.59a2.22,2.22,0,0,0,.06-.43L139.15,90a1.27,1.27,0,1,0-1.94-1.63l-1,1.19-1-1.19a1.27,1.27,0,0,0-2,1.63l1.27,1.51-1,2.65-4.42.79-5.23-6.22,4.41-12.13L148.89,73,170,98.13l-17,46.8L108.38,119.2a3.94,3.94,0,0,0-.76-.34L85.09,92c0-.06-.12-.1-.17-.16L77,70.09a1.05,1.05,0,0,0-.13-.26V55a1.87,1.87,0,0,0,0-.34s3.38-9.47,3.37-9.77c0,0,3.59-4.35,3.65-4.47s3.41-2,3.51-2.12l2.13-.38a1.28,1.28,0,1,0-.45-2.51l-1.53.28V34.1a1.27,1.27,0,1,0-2.54,0v2l-1.92,1.12s-1.08-2.85-1.16-3V32.05a1.27,1.27,0,0,0-2.54,0v1.57l-1.53-.28a1.29,1.29,0,0,0-1.48,1,1.27,1.27,0,0,0,1,1.48l1.95.34,1,2.66L77.68,42S74.4,38.12,74.29,38s-1.39-3.7-1.47-3.81V32.05a1.28,1.28,0,0,0-2.55,0v1.56l-1.53-.27a1.27,1.27,0,1,0-.44,2.5l1.94.34L71,38.26s-3,.58-3.13.64l-2.13-.37a1.27,1.27,0,1,0-.43,2.5l1.53.27-.54,1.47a1.29,1.29,0,0,0,.77,1.63,1.28,1.28,0,0,0,1.62-.76l.68-1.86,2.77-.5L75,44.73l-2.37,6.52L66,47.41a2.2,2.2,0,0,0-.88-.3s-3.67-4.3-3.77-4.38S60,39,59.89,38.92V36.75a1.27,1.27,0,1,0-2.54,0v1.57L55.81,38a1.27,1.27,0,0,0-1.47,1,1.29,1.29,0,0,0,1,1.48l1.94.34L58.07,43s-3,.58-3.12.64l-2.13-.38a1.27,1.27,0,0,0-.44,2.5l1.53.28-.53,1.47a1.27,1.27,0,0,0,.76,1.63,1.29,1.29,0,0,0,.43.07,1.28,1.28,0,0,0,1.2-.84l.67-1.85L59.22,46l2.61,3.09s-4.34,2.57-4.44,2.66-3.89.73-4,.79l-2.13-.37a1.27,1.27,0,0,0-1.47,1,1.29,1.29,0,0,0,1,1.48l1.54.26-.54,1.47A1.28,1.28,0,0,0,52.57,58a1.31,1.31,0,0,0,.43.08,1.29,1.29,0,0,0,1.2-.85l.66-1.85L57.05,55s.05,3.06.09,3.19l-.74,2a1.26,1.26,0,0,0,.76,1.62,1.06,1.06,0,0,0,.43.08,1.28,1.28,0,0,0,1.2-.84l.53-1.46,1.35.79a1.32,1.32,0,0,0,.63.17,1.28,1.28,0,0,0,.64-2.38l-1.71-1V54.43l3.89-2.25,7,4.07V67.76s-12.82-2.24-12.94-2.25-8.72-4.94-9-5c0,0-3.68-4.3-3.78-4.39s-1.4-3.71-1.48-3.81V50.15a1.27,1.27,0,0,0-2.54,0V51.7l-1.54-.27a1.29,1.29,0,0,0-1.47,1,1.27,1.27,0,0,0,1,1.46l1.94.33.75,2.1s-3,.57-3.12.63l-2.14-.37a1.27,1.27,0,1,0-.43,2.5L38,59.4l-.53,1.47a1.28,1.28,0,0,0,1.19,1.7,1.28,1.28,0,0,0,1.2-.84l.67-1.85,2.78-.5,2.59,3.11s-4.33,2.56-4.43,2.65-3.89.73-4,.79l-2.13-.37a1.27,1.27,0,0,0-.44,2.51l1.54.26-.54,1.47a1.26,1.26,0,0,0,.76,1.62,1.17,1.17,0,0,0,.44.08,1.27,1.27,0,0,0,1.19-.83l.67-1.86,2.19-.39s0,3.06.08,3.19l-.74,2a1.27,1.27,0,0,0,.76,1.63,1.17,1.17,0,0,0,.44.08,1.26,1.26,0,0,0,1.19-.83l.54-1.48,1.35.78a1.32,1.32,0,0,0,.63.17,1.3,1.3,0,0,0,1.11-.63A1.28,1.28,0,0,0,46,71.63l-1.72-1V67.82l3.88-2.25,6,3.47s-5.28,6.4-5.38,6.68c0,0-4.86,2.87-5,3s-3.88.74-4,.8l-2.15-.39a1.27,1.27,0,0,0-1.47,1,1.25,1.25,0,0,0,1,1.46l1.55.28-.53,1.47A1.26,1.26,0,0,0,39,85a1.14,1.14,0,0,0,.44.08,1.27,1.27,0,0,0,1.19-.84l.68-1.85L43.48,82s0,3,.08,3.17l-.74,2a1.26,1.26,0,0,0,.76,1.62,1.09,1.09,0,0,0,.43.08,1.26,1.26,0,0,0,1.19-.83l.55-1.47,1.34.78a1.33,1.33,0,0,0,.64.17,1.27,1.27,0,0,0,.63-2.37l-1.7-1V81.36l3.5-2S51.93,84.08,52,84.2s0,3.92.09,4.06l-.74,2a1.25,1.25,0,0,0,.75,1.63,1.41,1.41,0,0,0,.44.08,1.26,1.26,0,0,0,1.19-.84l.54-1.47,1.35.78a1.33,1.33,0,0,0,.64.17,1.27,1.27,0,0,0,.63-2.37l-1.71-1V85.07l3.16.48,1.86,1.08a1.23,1.23,0,0,0,.64.17,1.27,1.27,0,0,0,.64-2.37l-1.36-.78,1-1.2a1.27,1.27,0,1,0-1.94-1.63l-1.28,1.51-2.77-.49-1.55-4.23,5.23-6.21,12.71,2.23,6.6,18.14s-20.64,3.66-20.74,3.69-14.84-2.61-15-2.61-8.74-5-9-5c0,0-3.66-4.29-3.76-4.37s-1.4-3.71-1.48-3.83V77.47a1.28,1.28,0,0,0-2.55,0V79l-1.53-.27a1.27,1.27,0,0,0-.44,2.5l1.94.34.76,2.08s-3,.58-3.12.65L21.07,84a1.27,1.27,0,0,0-.44,2.51l1.54.27-.53,1.46a1.26,1.26,0,0,0,.76,1.62,1.09,1.09,0,0,0,.43.08,1.28,1.28,0,0,0,1.2-.84l.68-1.85,2.77-.48,2.61,3.1s-4.35,2.57-4.45,2.65l-3.43.66A1.71,1.71,0,0,0,20.74,95a1.59,1.59,0,0,0,1.56,1.3,1.42,1.42,0,0,0,.29,0l2.72-.48s0,3,.07,3.17l-.73,2a1.27,1.27,0,0,0,.76,1.63,1.13,1.13,0,0,0,.44.07,1.28,1.28,0,0,0,1.19-.83l.53-1.46,1.34.78a1.32,1.32,0,0,0,.64.16A1.26,1.26,0,0,0,30.19,99l-1.71-1V95.16l3.88-2.25,6,3.47s-5.27,6.39-5.37,6.68c0,0-4.87,2.87-5,3s-3.88.73-4,.79l-2.15-.37a1.27,1.27,0,0,0-.44,2.5l1.54.26-.54,1.47a1.27,1.27,0,0,0,.76,1.63,1.09,1.09,0,0,0,.43.08,1.27,1.27,0,0,0,1.2-.83l.68-1.86,2.18-.38s0,3,.09,3.17l-.75,2a1.28,1.28,0,0,0,.76,1.63,1.68,1.68,0,0,0,.44.07,1.26,1.26,0,0,0,1.19-.84l.53-1.47,1.36.79a1.23,1.23,0,0,0,.63.18,1.28,1.28,0,0,0,.64-2.38l-1.71-1V108.7l3.51-2s1.77,4.76,1.84,4.87.05,3.92.09,4l-.75,2a1.26,1.26,0,0,0,.76,1.62,1.36,1.36,0,0,0,.44.08,1.26,1.26,0,0,0,1.19-.83l.53-1.48,1.36.78a1.24,1.24,0,0,0,.64.18,1.27,1.27,0,0,0,.63-2.38l-1.71-1v-2.22l3.15.48L44.42,114a1.26,1.26,0,0,0,1.73-.47,1.26,1.26,0,0,0-.45-1.73L44.34,111l1-1.19a1.27,1.27,0,0,0-1.94-1.65l-1.27,1.51-2.78-.49L37.81,105,43,98.73l11.34,2S50,113,49.92,113.09s-6.41,7.73-6.51,8c0,0-4.85,2.87-4.95,3s-3.9.74-4,.79l-2.14-.37a1.26,1.26,0,1,0-.44,2.49l1.53.28-.53,1.47a1.29,1.29,0,0,0,.77,1.63,1.31,1.31,0,0,0,.43.08,1.29,1.29,0,0,0,1.2-.84l.67-1.86,2.18-.38s0,3.05.08,3.18l-.74,2.05a1.28,1.28,0,0,0,.76,1.63,1.31,1.31,0,0,0,.44.07,1.27,1.27,0,0,0,1.19-.83l.54-1.47,1.35.77a1.32,1.32,0,0,0,.63.17,1.29,1.29,0,0,0,1.11-.64,1.26,1.26,0,0,0-.48-1.73l-1.7-1v-2.83l3.51-2s1.76,4.74,1.84,4.86,0,3.92.09,4.06l-.75,2a1.28,1.28,0,0,0,.76,1.63,1.09,1.09,0,0,0,.43.08,1.28,1.28,0,0,0,1.2-.84l.53-1.47,1.35.78a1.22,1.22,0,0,0,.63.17,1.27,1.27,0,0,0,.64-2.37l-1.7-1v-2.22l3.15.48L54.84,132a1.33,1.33,0,0,0,.64.17,1.3,1.3,0,0,0,1.1-.63,1.28,1.28,0,0,0-.46-1.74L54.76,129l1-1.19a1.27,1.27,0,0,0-1.95-1.64l-1.26,1.51-2.78-.49L48.23,123l4.46-5.31s5.38,6.3,5.64,6.45c0,0,2,5.32,2.06,5.44s0,3.94.08,4.07l-.74,2a1.27,1.27,0,0,0,.76,1.63,1.09,1.09,0,0,0,.43.08,1.28,1.28,0,0,0,1.2-.84l.53-1.46,1.35.77a1.19,1.19,0,0,0,.63.17,1.27,1.27,0,0,0,.64-2.37l-1.7-1v-2.23l3.15.48L68.59,132a1.3,1.3,0,0,0,.64.18,1.28,1.28,0,0,0,.64-2.38L68.51,129l1-1.19a1.27,1.27,0,1,0-1.94-1.64l-1.27,1.51-2.78-.49-1.39-3.8s4.95-.93,5.08-1l4.05.64,1.87,1.07a1.19,1.19,0,0,0,.63.17,1.25,1.25,0,0,0,1.1-.63A1.28,1.28,0,0,0,74.4,122l-1.35-.78,1-1.19a1.28,1.28,0,0,0-.17-1.79,1.26,1.26,0,0,0-1.79.15l-1.27,1.51-2.18-.38s1-2.89,1-3l1.4-1.65a1.27,1.27,0,0,0-2-1.64l-1,1.19-1-1.19a1.27,1.27,0,1,0-1.94,1.64l1.26,1.49-1,2.67-4.41.78-5.22-6.24,4.4-12.12L80.8,97.75l20.17,24L72.16,138.47l-23.08,4.09"/><path class="cls-4" d="M51.92,148.49m.15,28.16s0,4,.08,4.09l-.74,2a1.29,1.29,0,0,0,.75,1.64,1.27,1.27,0,0,0,1.63-.76l.54-1.47,1.36.78a1.25,1.25,0,0,0,1.73-.46,1.12,1.12,0,0,0,.15-.42,1.27,1.27,0,0,0-.61-1.32l-1.71-1v-2.22s3,.5,3.16.48l1.88,1.09a1.27,1.27,0,0,0,1.73-.47,1.07,1.07,0,0,0,.15-.41,1.29,1.29,0,0,0-.61-1.33l-1.36-.78,1-1.2a1.24,1.24,0,0,0,.28-.59,1.28,1.28,0,0,0-2.23-1L58,174.82l-2.79-.5-1.38-3.81s5-.91,5.11-1,3.87.63,4,.62l1.88,1.09a1.27,1.27,0,0,0,1.89-.87,1.29,1.29,0,0,0-.61-1.33l-1.35-.78,1-1.18a1.32,1.32,0,0,0,.28-.6,1.26,1.26,0,0,0-.43-1.2,1.28,1.28,0,0,0-1.79.15L62.53,167l-2.18-.39s1-3,1-3l1.37-1.65a1.25,1.25,0,0,0-.15-1.79,1.27,1.27,0,0,0-1.79.16l-1,1.18-1-1.19a1.28,1.28,0,0,0-1.79-.15,1.26,1.26,0,0,0-.16,1.78l1.27,1.52-1,2.64-4.42.78m-8.36-2.05,25.47-25.9-20.73,3.67-15-2.6-9-5-3.76-4.36-1.48-3.83v-2.17a1.27,1.27,0,0,0-2.54,0v1.56l-1.53-.27a1.26,1.26,0,0,0-1.47,1,1.27,1.27,0,0,0,1,1.48l1.93.34.76,2.09s-3,.57-3.12.64L12.79,131a1.26,1.26,0,1,0-.44,2.49l1.53.28-.53,1.46a1.27,1.27,0,0,0,.76,1.63,1.25,1.25,0,0,0,1.62-.75l.68-1.86,2.78-.48,2.61,3.1s-4.35,2.57-4.45,2.65-3.88.73-4,.79L11.21,140a1.27,1.27,0,1,0-.44,2.5l1.53.27-.54,1.47a1.27,1.27,0,1,0,2.39.87l.68-1.85,2.18-.38s0,3.05.09,3.18l-.75,2a1.27,1.27,0,1,0,2.39.87l.53-1.46,1.35.78a1.29,1.29,0,0,0,1.74-.45,1.16,1.16,0,0,0,.15-.43,1.27,1.27,0,0,0-.61-1.32l-1.71-1v-2.83l3.9-2.24,6,3.47-5.37,6.67-5,3-4,.79-2.14-.38a1.27,1.27,0,0,0-.44,2.51l1.54.27-.54,1.46a1.27,1.27,0,0,0,2.39.88l.68-1.86,2.18-.38s0,3.06.08,3.19l-.74,2a1.27,1.27,0,0,0,2.39.88l.53-1.47,1.35.78a1.28,1.28,0,0,0,1.74-.47,1.32,1.32,0,0,0,.15-.42,1.26,1.26,0,0,0-.62-1.32l-1.7-1v-2.83l3.51-2s1.77,4.73,1.84,4.85,0,3.94.08,4.08l-.75,2a1.27,1.27,0,1,0,2.38.87l.55-1.46,1.35.79a1.26,1.26,0,0,0,1.73-.47,1.07,1.07,0,0,0,.15-.41,1.27,1.27,0,0,0-.61-1.33l-1.7-1V159.5s3,.49,3.14.47l1.88,1.09a1.27,1.27,0,0,0,1.74-.46,1.62,1.62,0,0,0,.15-.42,1.26,1.26,0,0,0-.62-1.32L36,158.08l1-1.2a1.18,1.18,0,0,0,.27-.59,1.26,1.26,0,0,0-.43-1.2,1.24,1.24,0,0,0-1.78.16l-1.27,1.5-2.78-.48L29.51,152l5.23-6.21,11.33,2"/><path class="cls-4" d="M30.61,89.52s-4.87,2.88-5,3-3.88.73-4,.79l-2.15-.37a1.26,1.26,0,0,0-1.47,1,1.28,1.28,0,0,0,1,1.47l1.54.27-.54,1.46a1.27,1.27,0,0,0,.76,1.63,1.32,1.32,0,0,0,.44.08A1.27,1.27,0,0,0,22.44,98l.69-1.84,2.18-.39s0,3,.08,3.18l-.75,2"/></svg>