<svg id="Layer_1" data-name="Layer 1" xmlns="http://www.w3.org/2000/svg" viewBox="0 0 500 500"><title>Artboard 1 copy</title><path d="M348.52,131.53,347,146l14.48-1a11.85,11.85,0,0,1,1.71,23.64L344.87,170l-9,18.52s27.13,8.14,28.25,8.81l20.1-1.45a11.85,11.85,0,1,1,1.7,23.64l-14.43,1,3.48,14a11.7,11.7,0,0,1-8.48,14.38,11.83,11.83,0,0,1-14.39-8.54l-4.57-17.85-25.19-7.18-27.12,26.26,38.55,28.72,36.41,11.14L390.38,280a11.83,11.83,0,0,1,1.7,23.59l-14.5,1.05,3.55,14.07a11.83,11.83,0,0,1-22.94,5.83l-4.57-17.86-19.73-5.61L330,330.52,335,350.15a11.84,11.84,0,1,1-23,5.71l-3.5-14.09-13.22,5.88a11.8,11.8,0,0,1-15.64-6,10.55,10.55,0,0,1-1-4A11.8,11.8,0,0,1,285.52,326l16.85-7.45L305,292.48,271.11,268l-68.94,30.91-11,106.55,1.3-.09a57.25,57.25,0,0,0-3.54,22.39,57.34,57.34,0,0,0-3.3,22.79,58.75,58.75,0,0,0-2.85,8.89l-.71.05-5.69,11.73c-12.54,1.36-25.06,2.89-37.58,4.44a77,77,0,0,0-6.52-6.38A159.28,159.28,0,0,0,132.6,438c.07-.57.07-1.14.11-1.7a57.53,57.53,0,0,0,2.94-16.12c.32-.67.52-1.07.54-1.1s14.58-139.57,14.87-140.55c0,0-21.82-92-21.74-93.43,0,0-29.68-44.24-30.14-45.51,0,0-29-21.56-29.77-22.6l-19.64-5.49a11.91,11.91,0,0,1-8.57-10.6,13.69,13.69,0,0,1,.4-4.07,11.83,11.83,0,0,1,14.58-8.11l14.09,4,1.49-14.47A11.83,11.83,0,1,1,95.3,80.62L93.43,98.94l16.69,12s12.7-25.28,13.56-26.28l2-20.08A11.84,11.84,0,0,1,149.27,67l-1.42,14.49,14.48-1A11.85,11.85,0,0,1,164,104.12l-18.4,1.32L134.2,129l21.1,31.21s34.13-32.34,35.17-33c0,0,16.42-32.92,17.3-33.9l2-20.06a11.83,11.83,0,1,1,23.53,2.42l-1.5,14.42,14.44-1a11.83,11.83,0,1,1,1.7,23.59L229.72,114l-9,18.56s27.14,8.23,28.33,8.87l20.06-1.44a11.83,11.83,0,0,1,1.7,23.6l-14.47,1,3.56,14.19a11.85,11.85,0,0,1-23,5.73l-4.45-17.87-25.3-7.23-30,29.13,15.78,62.65,73.54-31.12s38.12-36.27,39.09-36.89l17.29-34,2.1-20.08a11.84,11.84,0,0,1,23.56,2.4"/></svg>