<svg id="Layer_1" data-name="Layer 1" xmlns="http://www.w3.org/2000/svg" viewBox="0 0 500 500"><title>Artboard 1</title><path d="M345.92,61.37l-3.74,4.9L338,61.75a5,5,0,0,0-7.36,6.78l5.25,5.71-2.6,8.28s-10.7-5.35-11.23-5.46l-5.76-6.27A5,5,0,1,0,309,77.56l4.14,4.5L308,85.37a4.93,4.93,0,0,0-1.56,6.87,5,5,0,0,0,6.9,1.54l6.57-4.16,9.81,5.08.74,15.92-20.16-2.33-14.41-7.12-5.78-6.28a5,5,0,0,0-7.35,6.75l4.15,4.52-5.16,3.3a5,5,0,0,0,5.36,8.43l6.58-4.17,7.68,4L294,127.88l-7.2,4.6a5,5,0,1,0,5.41,8.4l5.15-3.31,2.37,5.63a5,5,0,0,0,6.53,2.7,4.58,4.58,0,0,0,1.46-.94,5,5,0,0,0,1.25-5.58l-3-7.17,6.75-8.78,17.5,2.29,12.24,29.45L315,191.1s-34.66-37.58-35-37.88c0,0-15.45-36.37-16.28-37.23l-1.32-22.65,4.48-15.41,5.2-6.77a5,5,0,0,0-7.94-6.07L260.43,70l-4.18-4.55a5,5,0,0,0-7.35,6.75l5.26,5.72-2.61,8.29s-10.71-5.31-11.27-5.42l-5.78-6.29a5,5,0,1,0-7.35,6.75l4.16,4.54L226.17,89a5,5,0,0,0,5.37,8.43l6.52-4.17,9.88,5.1.7,15.9S229,111.94,228.47,112c0,0-13.88-7-14.41-7.11l-5.8-6.31a5,5,0,0,0-7.35,6.76l4.17,4.54-5.18,3.31a5,5,0,1,0,5.37,8.43l6.55-4.2,7.72,4-7.34,10.16L205,136.16a5,5,0,0,0,5.39,8.43l5.16-3.31,2.35,5.65a5,5,0,0,0,6.54,2.71,5.14,5.14,0,0,0,1.48-.95,5,5,0,0,0,1.21-5.61l-3-7.14,6.73-8.85,17.52,2.3,10.48,25.13-32.76,8.06L203.58,160s-13.88-7-14.44-7.12l-5.72-6.23a5,5,0,1,0-7.36,6.76l4.12,4.48-5.13,3.3a5,5,0,0,0,5.38,8.4l6.49-4.16,7.76,4-7.31,10.09-7.2,4.57a5,5,0,1,0,5.36,8.44l5.21-3.32,2.35,5.68a5,5,0,0,0,6.53,2.7,5.73,5.73,0,0,0,1.47-.93,5,5,0,0,0,1.2-5.62l-3-7.13,6.72-8.81,15.8,2.06s-5.74,18.91-5.77,19.44l-9.54,13-7.18,4.56a5.07,5.07,0,0,0-1.5,6.93,5,5,0,0,0,6.9,1.5l5.16-3.3,2.37,5.66a5,5,0,0,0,6.53,2.67,5.26,5.26,0,0,0,1.47-.91,5,5,0,0,0,1.22-5.61l-3-7.16,5.31-6.93,8.67,8.94,3.28,8a5,5,0,0,0,6.53,2.7,4.75,4.75,0,0,0,1.46-.94,5,5,0,0,0,1.24-5.58l-2.36-5.71,6-1.36a4.82,4.82,0,0,0,2.28-1.19,5,5,0,0,0-4.47-8.55L238.9,205l-7.5-8.16L236.66,180,267.84,173l34.31,37.32-22.69,72.38s-73.16-37.84-73.52-38c0,0-40.15-43.57-40.46-43.82,0,0-15.43-36.41-16.28-37.29,0,0-1.19-22.1-1.34-22.6,0,0,4.51-14.89,4.5-15.46l5.2-6.74a5,5,0,1,0-7.92-6.08l-3.73,4.84-4.13-4.5a5,5,0,1,0-7.35,6.76l5.21,5.68L137,133.86s-10.7-5.37-11.23-5.47L120,122.14a5,5,0,1,0-7.34,6.75l4.12,4.48-5.15,3.33a5,5,0,0,0,5.39,8.41l6.51-4.21,9.85,5.15.73,15.89s-19.71-2.34-20.22-2.29c0,0-13.84-7-14.39-7.13l-5.75-6.26A5,5,0,1,0,86.45,153l4.12,4.49-5.18,3.31a5,5,0,1,0,5.37,8.42L97.31,165l7.72,4s-7.11,9.64-7.31,10.15l-7.2,4.58a5,5,0,0,0,5.35,8.44l5.2-3.3,2.34,5.65a5,5,0,0,0,6.52,2.72,5.34,5.34,0,0,0,1.48-.94,5,5,0,0,0,1.24-5.6l-3-7.16,6.72-8.84L133.93,177l10.43,25.13s-31.71,7.38-32.7,8c0,0-22.07-2.67-22.57-2.62,0,0-13.89-7-14.42-7.08l-5.79-6.31A5,5,0,0,0,61.53,201l4.16,4.52-5.16,3.29a5,5,0,0,0,5.37,8.44L72.44,213l7.74,4S73,226.67,72.8,227.2l-7.16,4.57A5,5,0,1,0,71,240.18l5.15-3.32,2.39,5.65a5,5,0,0,0,6.52,2.68,4.84,4.84,0,0,0,1.45-.92,5,5,0,0,0,1.24-5.61l-3-7.12,6.78-8.83,15.76,2s-5.72,19-5.78,19.5c0,0-9.27,12.45-9.47,13l-7.2,4.53a5,5,0,0,0,5.34,8.45l5.17-3.29,2.36,5.68a5,5,0,0,0,6.53,2.68,5.2,5.2,0,0,0,1.49-.93,5,5,0,0,0,1.22-5.58l-3-7.14,5.31-6.93s8.22,8.66,8.7,9l3.25,7.86a5,5,0,0,0,6.52,2.7,4.55,4.55,0,0,0,1.47-.93,5,5,0,0,0,1.23-5.59L128.14,262l6-1.36a4.71,4.71,0,0,0,2.27-1.2,5,5,0,0,0-4.47-8.54l-7.54,1.7-7.5-8.16,5.26-16.84,31.15-6.94,30.58,33.27L141.55,281a11.84,11.84,0,0,0-1.05.82s-38.41,8.89-39.43,9.54c0,0-22-2.64-22.56-2.59,0,0-13.87-7-14.43-7.12l-5.76-6.27A5,5,0,1,0,51,282.17l4.15,4.52L50,290a5,5,0,1,0,5.36,8.38l6.54-4.18,7.72,4s-7.1,9.6-7.32,10.11l-7.14,4.58a5,5,0,0,0,5.36,8.43l5.15-3.28L68,323.74a5,5,0,0,0,6.56,2.7,5.27,5.27,0,0,0,1.45-.92,5,5,0,0,0,1.23-5.61l-3-7.17L81,303.92l15.79,2S91,324.93,91,325.42c0,0-9.3,12.49-9.51,13L74.28,343a5,5,0,0,0,5.37,8.48l5.18-3.31,2.34,5.64a5,5,0,1,0,9.23-3.83l-3-7.15,5.33-6.93s8.22,8.69,8.7,9l3.26,7.84a5,5,0,0,0,6.53,2.71,4.62,4.62,0,0,0,1.47-.94,5,5,0,0,0,1.22-5.58l-2.37-5.68,6-1.33a5,5,0,0,0,3.78-6,5,5,0,0,0-6-3.8l-7.56,1.71-7.5-8.16,5.26-16.88,26.61-5.93s1.75,32.57,2.27,33.69c0,0-6.5,21.2-6.54,21.69,0,0-9.3,12.49-9.49,13l-7.19,4.56a5,5,0,0,0,5.36,8.44l5.18-3.3,2.36,5.67a5,5,0,0,0,6.52,2.68,4.81,4.81,0,0,0,1.47-.92,5,5,0,0,0,1.24-5.59l-3-7.17,5.31-6.91s8.25,8.69,8.74,9l3.25,7.86a5,5,0,0,0,6.53,2.67,4.61,4.61,0,0,0,1.46-.93,5,5,0,0,0,1.24-5.58L160.5,376l6-1.34a5,5,0,0,0,3.8-6,5,5,0,0,0-6-3.76l-7.55,1.7-7.52-8.19L154,343.26s17.73,9,18.25,9.16c0,0,10.57,11.22,11,11.52l3.26,7.9a5,5,0,0,0,6.54,2.71,5.86,5.86,0,0,0,1.46-1,5,5,0,0,0,1.24-5.57l-2.36-5.67,6-1.31a4.92,4.92,0,0,0,2.31-1.19,5,5,0,0,0-4.46-8.57L189.68,353l-5.91-6.44s10.23-6.83,10.39-7l8.24-1.85a5,5,0,0,0,2.29-1.21,5,5,0,0,0-4.47-8.53l-6,1.33-.27-6.14a5,5,0,1,0-10,.47l.34,7.75L175,337.27l-15.66-8.11-1.45-31.92L200.59,270l72.89,37.79,5.59,123.18-1.19-.15c.07.7.13,1.41.16,2.14a30.33,30.33,0,0,1,.27,5.29c0,.39-.07.75-.09,1.13.58.64,1.17,1.27,1.73,1.94,1.55,0,3.11,0,4.68,0l14.39.54c2.39-.33,4.8-.55,7.24-.7a33.11,33.11,0,0,1-.05-3.32,30.58,30.58,0,0,1,.48-4.29L300.62,300c0-.32-.1-.65-.13-1,0,0,27.35-87.5,27.44-87.85,0,0,35.92-47.11,36.11-47.49,0,0,33.35-22,33.73-22.42,0,0,21.92-5,22.44-5.26,0,0,15.14,1.76,15.68,1.67l7.63,4a5,5,0,0,0,5.7-.78,6,6,0,0,0,1.06-1.36,5,5,0,0,0-2.14-6.72L442.66,130l3.73-4.88a5,5,0,1,0-7.92-6.09l-4.73,6.17-8.61-1.12s3.42-11.45,3.44-12l5.19-6.76a5,5,0,0,0-7.94-6.07l-3.76,4.86-4.15-4.51a5,5,0,0,0-7.36,6.77l5.27,5.73-3.3,10.55L397,126.11s-1.13-19.82-1.26-20.32c0,0,4.49-14.87,4.5-15.43l5.18-6.75a5,5,0,1,0-7.93-6.07l-3.72,4.87-4.13-4.5a5,5,0,1,0-7.35,6.76l5.23,5.69-2.61,8.3s-10.72-5.32-11.27-5.47l-5.75-6.25a5,5,0,0,0-7.35,6.76l4.14,4.51-5.2,3.33a5,5,0,0,0,5.41,8.42l6.54-4.21,9.87,5.1.78,17.64-23,14.68-13.59-30.85s-1.22-22.18-1.33-22.65l4.51-15.44,5.17-6.77a5,5,0,0,0-7.94-6.09"/></svg>